<?xml version="1.0" encoding="utf-8"?>
<!-- Generator: Adobe Illustrator 25.4.1, SVG Export Plug-In . SVG Version: 6.00 Build 0)  -->
<svg version="1.1" id="Layer_1" xmlns="http://www.w3.org/2000/svg" xmlns:xlink="http://www.w3.org/1999/xlink" x="0px" y="0px"
	 viewBox="0 0 48 48" style="enable-background:new 0 0 48 48;" xml:space="preserve">
<style type="text/css">
	.st0{fill:url(#SVGID_1_);}
</style>
<g>
	<linearGradient id="SVGID_1_" gradientUnits="userSpaceOnUse" x1="3.5857" y1="24.082" x2="48.1849" y2="23.962">
		<stop  offset="0" style="stop-color:#1EE7B7"/>
		<stop  offset="0.4589" style="stop-color:#11BBBE"/>
		<stop  offset="1" style="stop-color:#20B1F8"/>
	</linearGradient>
	<path class="st0" d="M9.6,18.7v-1c0-0.3,0.2-0.5,0.5-0.5s0.5,0.2,0.5,0.5v1c0,0.3-0.2,0.5-0.5,0.5S9.6,19,9.6,18.7z M10.1,15.9
		c0.3,0,0.5-0.2,0.5-0.5v-1c0-0.3-0.2-0.5-0.5-0.5s-0.5,0.2-0.5,0.5v1C9.6,15.6,9.8,15.9,10.1,15.9L10.1,15.9z M8.6,17h0.3
		c0.3,0,0.5-0.2,0.5-0.5S9.2,16,8.9,16H8.6c-0.3,0-0.5,0.2-0.5,0.5S8.3,17,8.6,17z M11.3,17h0.3c0.3,0,0.5-0.2,0.5-0.5
		S11.9,16,11.6,16h-0.3c-0.3,0-0.5,0.2-0.5,0.5S11,17,11.3,17z M40.5,36.7c0,0.3-0.2,0.5-0.5,0.5H5.7c-0.3,0-0.5-0.2-0.5-0.5
		s0.2-0.5,0.5-0.5h4.2c-0.2-0.2-0.3-0.4-0.4-0.5c-0.5-1-0.5-2.1,0.1-3l2-3.2c0.1-0.2,0.5-0.3,0.7-0.1c0.2,0.1,0.3,0.5,0.2,0.7
		l-2,3.2c-0.6,0.9-0.3,2.2,0.6,2.8c0.3,0.2,0.7,0.3,1.1,0.3h2.1l-0.4-3.6c-0.6,0-1.1,0-1.7,0c0,0,0,0-0.1,0c-0.3,0-0.5-0.2-0.5-0.5
		c0-0.3,0.2-0.5,0.5-0.5c0.6-0.1,1.1-0.1,1.7,0L13,26c-0.1-0.8,0.5-1.6,1.3-1.7c0.1,0,0.1,0,0.2,0h5.3c0.4-0.6,0.6-1.3,0.5-2
		c-1.4-0.5-2.4-1.9-2.4-3.4v-2.7l-2.6-3.8c-0.2-0.2-0.1-0.5,0.1-0.7c0.1-0.1,0.2-0.1,0.3-0.1h1.4l-1.4-2.4c-0.1-0.2,0-0.5,0.2-0.7
		c0.1-0.1,0.2-0.1,0.3-0.1l7.6,1.1c2.3,0.3,4.1,2.3,4.1,4.7v4.7c0,1.6-1,2.9-2.5,3.4c0,0.3,0,0.6,0.1,1c0.1,0.3-0.1,0.5-0.4,0.6
		c0,0,0,0,0,0c0,0-0.1,0-0.1,0c-0.2,0-0.4-0.2-0.5-0.4c-0.1-0.3-0.1-0.6-0.1-1c-0.1,0-0.1,0-0.2,0h-2.7c-0.1,0-0.2,0-0.3,0
		c0,0.6-0.2,1.2-0.4,1.8h10.4c0.8,0,1.5,0.7,1.5,1.5c0,0.1,0,0.1,0,0.2l-0.1,1.1l3.5,5.5c0.6,0.9,0.6,2.1,0.1,3
		c-0.1,0.2-0.2,0.4-0.4,0.5H40C40.3,36.2,40.5,36.4,40.5,36.7z M21.5,21.5h2.7c0.2,0,0.3,0,0.5-0.1c0,0,0.1,0,0.1,0
		c1.2-0.3,2-1.4,2-2.6v-4.7c0-1.9-1.4-3.4-3.2-3.7l-6.6-0.9l1.5,2.6c0.1,0.2,0.1,0.5-0.2,0.7c-0.2,0.1-0.5,0.1-0.7-0.2l-0.1-0.1h-1
		l2.1,3.1c0,0,0,0,0,0c0,0.1,0.1,0.1,0.1,0.2c0,0,0,0,0,0v2.8C18.9,20.4,20.1,21.5,21.5,21.5z M24.2,31.1c0-0.8-0.6-1.4-1.4-1.4
		c-0.8,0-1.4,0.6-1.4,1.4c0,0.8,0.6,1.4,1.4,1.4c0,0,0,0,0,0C23.6,32.4,24.2,31.8,24.2,31.1z M33.6,36.2c1.1,0,2-0.9,2-2
		c0-0.4-0.1-0.7-0.3-1.1l-2.8-4.5l-0.4,3c0.6,0,1.1,0,1.7,0c0.3,0,0.5,0.3,0.5,0.5s-0.3,0.5-0.5,0.5c0,0,0,0-0.1,0
		c-0.6-0.1-1.1-0.1-1.7,0l-0.4,3.6L33.6,36.2L33.6,36.2z M28.8,39.2c-0.3,0-0.5,0.2-0.5,0.5s0.2,0.5,0.5,0.5s0.5-0.2,0.5-0.5
		S29.1,39.2,28.8,39.2C28.8,39.2,28.8,39.2,28.8,39.2z M31.8,39.2c-0.3,0-0.5,0.2-0.5,0.5s0.2,0.5,0.5,0.5s0.5-0.2,0.5-0.5
		S32.1,39.2,31.8,39.2C31.8,39.2,31.8,39.2,31.8,39.2z M34.8,39.2c-0.3,0-0.5,0.2-0.5,0.5s0.2,0.5,0.5,0.5s0.5-0.2,0.5-0.5
		S35.1,39.2,34.8,39.2C34.8,39.2,34.8,39.2,34.8,39.2z M22.9,30.7c-0.2,0-0.4,0.2-0.4,0.4c0,0.2,0.2,0.4,0.4,0.4c0,0,0,0,0,0
		c0.2,0,0.4-0.2,0.4-0.4c0,0,0,0,0,0C23.2,30.9,23.1,30.7,22.9,30.7C22.9,30.7,22.9,30.7,22.9,30.7z M42.8,10.3v4.2
		c0,1.4-1.1,2.5-2.5,2.5l0,0H36l-2.2,2.5c-0.1,0.1-0.2,0.2-0.4,0.2c-0.1,0-0.1,0-0.2,0c-0.2-0.1-0.3-0.3-0.3-0.5V17
		c-1.2-0.2-2.1-1.2-2.1-2.5v-4.2c0-1.4,1.1-2.5,2.5-2.5h7C41.7,7.8,42.8,8.9,42.8,10.3z M34.1,12.4l1-1c0.2-0.2,0.2-0.5,0-0.7
		c-0.2-0.2-0.5-0.2-0.7,0l0,0L33,12c-0.1,0.1-0.1,0.2-0.2,0.4c0,0.1,0.1,0.3,0.2,0.4l1.4,1.3c0.1,0.1,0.2,0.1,0.3,0.1
		c0.1,0,0.3-0.1,0.4-0.1c0.2-0.2,0.2-0.5,0-0.7c0,0,0,0,0,0L34.1,12.4z M37.7,10.6c-0.2-0.1-0.5,0-0.7,0.2c0,0,0,0,0,0l-1.3,2.7
		c-0.1,0.2,0,0.5,0.2,0.7c0,0,0,0,0,0c0.1,0,0.1,0.1,0.2,0.1c0.2,0,0.4-0.1,0.5-0.3l1.3-2.7C38,11,37.9,10.7,37.7,10.6
		C37.7,10.6,37.7,10.6,37.7,10.6z M40.8,12.4c0-0.1-0.1-0.3-0.2-0.4l-1.4-1.3c-0.2-0.2-0.5-0.2-0.7,0c-0.2,0.2-0.2,0.5,0,0.7l1,1
		l-1,1c-0.2,0.2-0.2,0.5,0,0.7c0,0,0,0,0,0c0.2,0.2,0.5,0.2,0.7,0l1.4-1.3C40.7,12.7,40.8,12.5,40.8,12.4z"/>
</g>
</svg>
